<svg width="56" height="81" viewBox="0 0 56 81" fill="none" xmlns="http://www.w3.org/2000/svg">
<path d="M28.2101 22.75C23.5688 22.75 19.1176 24.5937 15.8357 27.8756C12.5539 31.1575 10.7101 35.6087 10.7101 40.25C10.7101 44.8913 12.5539 49.3425 15.8357 52.6244C19.1176 55.9063 23.5688 57.75 28.2101 57.75C32.8514 57.75 37.3026 55.9063 40.5845 52.6244C43.8664 49.3425 45.7101 44.8913 45.7101 40.25C45.7101 35.6087 43.8664 31.1575 40.5845 27.8756C37.3026 24.5937 32.8514 22.75 28.2101 22.75ZM28.1999 30.2167C34.7332 30.2167 36.9426 34.6281 37.0432 37.135H32.3197C32.2191 35.7321 31.0116 33.6263 28.0964 33.6263C24.9814 33.6263 22.9718 36.3344 22.9718 39.6433C22.9718 42.9537 24.9814 45.659 28.0964 45.659C30.9109 45.659 32.1184 43.454 32.6216 41.2475H28.0964V39.4421H37.5887V48.669H33.4251V42.8517C33.1232 44.9575 31.818 49.07 26.692 49.07C21.5645 49.07 18.5487 44.9575 18.5487 39.8446C18.5487 34.529 21.8678 30.2167 28.1999 30.2167Z" fill="#C9C9C9"/>
</svg>
