<svg width="56" height="81" viewBox="0 0 56 81" fill="none" xmlns="http://www.w3.org/2000/svg">
<path d="M23.192 26.3156C23.192 25.8417 23.2401 25.5573 24.0524 25.5573H34.9389C36.8347 25.5573 37.8847 27.176 38.643 30.2138L39.2555 32.6433H41.1076C41.443 25.7483 41.7347 22.75 41.7347 22.75C41.7347 22.75 37.0739 23.275 34.3118 23.275H20.3862L12.9283 23.0358V25.0338L15.4439 25.5092C17.2085 25.8592 17.6314 26.2325 17.7772 27.8513C17.7772 27.8513 17.9376 32.62 17.9376 40.4512C17.9376 48.3044 17.8064 53.0075 17.8064 53.0075C17.8064 54.4265 17.2376 54.9515 15.4876 55.3015L12.9764 55.7827V57.75L20.4576 57.5094H32.9264C35.7483 57.5094 42.2451 57.75 42.2451 57.75C42.3983 56.0438 43.3389 48.3 43.492 47.4483H41.742L39.8695 51.6921C38.4039 55.0171 36.2587 55.2577 33.8758 55.2577H26.7212C24.3441 55.2577 23.1993 54.3244 23.1993 52.2681V41.4167C23.1993 41.4167 28.4785 41.4167 30.1847 41.5567C31.5147 41.65 32.3183 42.0306 32.7514 43.8871L33.3201 46.359H35.3764L35.2451 40.1202L35.5251 33.8421H33.4966L32.8403 36.5983C32.4276 38.4125 32.1403 38.7421 30.2824 38.9317C27.8528 39.1796 23.2605 39.1358 23.2605 39.1358V26.3229H23.1876L23.192 26.3156Z" fill="#C9C9C9"/>
</svg>
